# xmcd
#
# Track frame offsets: 
#        150
#        11148
#        27652
#        46347
#        76180
#        95163
#        119942
#        161685
#        170848
#        191073
#        209022
#        228045
#        241350
#        271398
#        292745
#        312848
#
# Disc length: 4224 seconds
#
# Revision: 0
# Processed by: cddbd v1.5.2PL0 Copyright (c) Steve Scherf et al.
# Submitted via: ExactAudioCopy v1.0b3
#
DISCID=e9107e10
DTITLE=Various Artist - バロックベスト100 [Disc2]
DYEAR=2013
DGENRE=Classical
TTITLE0=モンテヴェルディ管弦楽団と合唱団 - 《聖母マリアのための夕べの祈り》から　序詞
TTITLE1=イ・ムジチ合奏団、ロベルト・ミケルッチ（ヴァイオリン） - 協奏曲集《四季》から　《春》　第1楽章
TTITLE2=トレヴァー・ピノック（チェンバロ） - 調子の良い鍛冶屋
TTITLE3=シュトゥットガルト室内管弦楽団 - アルビノーニのアダージョ
TTITLE4=ケネス・ギルバート（チェンバロ） - 平均律クラヴィーア曲集 第1巻 第1番から　プレリュード
TTITLE5=ジュリアン・ロイド・ウェッバー（チェロ）、ロイヤル・フィルハーモニー管弦楽団 - アヴェ・マリア
TTITLE6=ピーター・ハーフォード（オルガン） - トッカータとフーガ　ニ短調　
TTITLE7=トレヴァー・ピノック（クラヴサン） - かっこう（クラヴサン曲集から）
TTITLE8=エドゥアルト・メルクス（ヴァイオリン）、ユゲット・ドレフュス（チェンバロ） - ヴァイオリン・ソナタ　《悪魔のトリル》
TTITLE9=セリン・ロメロ（ギター）、アカデミー・オブ・セント・マーティン・イン・ザ・フィールズ - ギター協奏曲　ニ長調　第2楽章ラル
TTITLE9=ゴ
TTITLE10=イーヴォ・ポゴレリチ（ピアノ） - ソナタ　ニ短調　K.9
TTITLE11=オーレル・ニコレ（フルート）、ヨゼフ・ウルザマー（チェロ）、クリスティアーネ・ジャコッテ（クラヴサン） - 王宮のコンセー
TTITLE11=ル　第2番　第5楽章エコー
TTITLE12=シュトゥットガルト室内管弦楽団 - ブランデンブルク協奏曲　第3番　第1楽章
TTITLE13=ヤコブ・リンドバーグ（リュート） - ラクリメ（涙のパヴァーヌ）
TTITLE14=エマ・カークビー（ソプラノ）、ジェイムズ・ボウマン（カウンターテノール）、エンシェント室内管弦楽団 - ≪スターバト・マー
TTITLE14=テル≫から 〈悲しみに沈める母は〉
TTITLE15=グスタフ・レオンハルト（チェンバロ） - 《アンナ・マグダレーナ・バッハのための音楽帳》から　メヌエット
EXTD=
EXTT0=
EXTT1=
EXTT2=
EXTT3=
EXTT4=
EXTT5=
EXTT6=
EXTT7=
EXTT8=
EXTT9=
EXTT10=
EXTT11=
EXTT12=
EXTT13=
EXTT14=
EXTT15=
PLAYORDER=
